<svg xmlns="http://www.w3.org/2000/svg" width="31" height="31" viewBox="0 0 256 257">
  <defs>
    <linearGradient id="a" x1="-.828%" x2="57.636%" y1="7.652%" y2="78.411%">
      <stop offset="0%" stop-color="#41D1FF"/>
      <stop offset="100%" stop-color="#BD34FE"/>
    </linearGradient>
    <linearGradient id="b" x1="43.376%" x2="50.316%" y1="2.242%" y2="89.03%">
      <stop offset="0%" stop-color="#FFEA83"/>
      <stop offset="8.333%" stop-color="#FFDD35"/>
      <stop offset="100%" stop-color="#FFA800"/>
    </linearGradient>
  </defs>
  <path fill="url(#a)" d="M255.153 37.938L134.897 252.976c-2.483 4.406-8.857 4.38-11.305-.046L.875 37.958c-2.746-4.958 1.641-10.935 7.173-9.95l120.522 21.403a6.538 6.538 0 0 0 2.314 0l116.685-21.368c5.52-.99 9.919 4.95 7.187 9.905Z"/>
  <path fill="url(#b)" d="M185.432.063L96.44 17.501a3.266 3.266 0 0 0-2.634 3.095l-5.474 92.792a3.266 3.266 0 0 0 3.997 3.386l24.777-5.423c2.318-.508 4.413 1.507 3.936 3.845l-7.361 36.192c-.495 2.434 1.782 4.507 4.151 3.78l15.265-4.683c2.372-.728 4.652 1.35 4.15 3.785l-11.698 57.54c-.732 3.605 3.956 5.59 5.983 2.437l1.313-2.028l72.516-144.72c1.215-2.424-.883-5.186-3.536-4.672l-25.505 4.922c-2.377.458-4.374-1.802-3.785-4.152l16.646-66.982c.601-2.417-1.437-4.699-3.887-4.208Z"/>
</svg>
